<svg xmlns="http://www.w3.org/2000/svg" width="640" height="480"><path fill="#3f007f" fill-rule="evenodd" stroke="#fff" stroke-width="2" d="M224.698 90.876c-6.889.048-13.687 1.312-19.406 4.406-18.121 9.801-25.77 31.022-9.188 46.125 9.811 8.935 26.128 6.105 31.125-6.125 3.86-9.447-1.49-18.24-12.219-20.281-7.553-1.438-13.585 4.586-10.562 9.468 2.418 3.907 20.882-9.48 17.219 8.594-1.212 5.979-17.098 6.966-22.782-.812-6.987-9.563-4.087-21.87 6.938-26.688 14.019-6.127 33.704-5.812 45.281 3.625 7.055 5.751 5.562 18.81 10 28.875 4.753 10.779 10.078-2.804 8.906-13.875-1.4-13.23-6.162-20.165-12.218-24.437-6.513-4.594-19.943-8.968-33.094-8.875zm-67.563 31.312c-6.592.032-13.812 1.58-20.125 5.75-19.395 12.815-18.281 38.253-6.187 54.844 17.408 23.881 36.588 28.077 58.625 43.062 6.306 4.289 15.844 14.051 21.656 21.125 1.385-13.851 13.842-21.634 10.281-27.218-4.099-6.429-7.199 2.422-13.875 10.812-11.109-10.738-29.163-20.282-40.843-28.312-18.737-12.881-34.964-34.534-28.876-55.563 7.525-25.989 37.083-14.023 37.501-14.187 7.828-3.085-3.654-10.383-18.157-10.313zm85.094 21.25c-11.844.056-21.637 5.16-28.344 16.563-10.983 18.673-2.162 34.239 9.719 50.843 8.545 11.942 16.513 16.353 26.406 30 9.679 13.353 18.3 25.575 25.813 40.282 10.013-11.404 11.085-26.273 29.187-33.875 13.385-5.621 23.4-7.425 35.282-14.188 8.43-4.798 19.001-19.034 19.437-30.281.655-16.905 1.118-24.398-15-37.781-13.921-11.56-34.567-10.081-50.281-2.75-21.682 10.114-42.537 41.504-10.844 54.437 10.529 4.297 22.662-.552 31.125-8.062 7.066-6.271 11.129-15.973 5.563-23.875-3.301-4.686-11.306-8.111-17.219-7.782-9.666.539-15.107 8.011-15.844 17.5-.546 7.03 8.675 9.841 7.781 5-2.12-11.485 3.571-13.774 8.875-13.062 11.799 1.584 8.023 7.066 2.782 13.062-7.323 8.378-18.056 10.637-25.282 1.938-9.091-10.945 2.281-21.952 12.219-27.781 16.528-9.694 35.535-9.99 47.219 7.218 10.176 14.988.555 36.009-15.531 43.344-25.628 11.687-39.03 15.949-48.063 35.563-5.252-9.989-11.173-17.012-18.062-26.125-7.891-10.437-21.889-20.021-30-34.157-10.114-17.623-12.39-33.91 1.656-43.625 5.472-3.785 16.325-4.549 24.75-2.5 5.243 1.276 15.935 11.258 18.312 8.063 3.52-4.73-12.644-14.817-19.156-16.406-4.366-1.066-8.552-1.581-12.5-1.563zm14.281 20.875c-2.355-.06-6.478 2.797-10.5 8.688-2.526 3.7-9.483 8.627-12.125 17.281-3.052 9.998 5.08 12.526 7.782 2.5 2.315-8.592 10.259-12.479 13.218-17.156 4.693-7.417 4.295-11.244 1.625-11.313z"/></svg>