<?xml version="1.0" encoding="UTF-8"?>
<svg width="640" height="480" xmlns="http://www.w3.org/2000/svg" xmlns:svg="http://www.w3.org/2000/svg">
 <title>dark purple heart wedding</title>
 <metadata id="metadata2445">image/svg+xml2 hearts2008-03-16Christoph Brill</metadata>
 <g>
  <title>Layer 1</title>
  <path d="m224.697998,90.875702c-6.888992,0.048599 -13.686996,1.312599 -19.405991,4.406296c-18.121002,9.801003 -25.770004,31.022102 -9.188004,46.125c9.810989,8.935013 26.127991,6.104996 31.125,-6.125c3.860001,-9.447495 -1.490005,-18.2397 -12.219009,-20.281296c-7.552994,-1.437401 -13.584991,4.586601 -10.561996,9.468796c2.417999,3.906403 20.882004,-9.480995 17.219009,8.593704c-1.212006,5.978806 -17.098007,6.96579 -22.782013,-0.8125c-6.987,-9.562698 -4.08699,-21.869202 6.938004,-26.6875c14.018997,-6.127197 33.703995,-5.811905 45.281006,3.625c7.054993,5.750999 5.562012,18.809998 10,28.874802c4.752991,10.779007 10.078003,-2.803513 8.906006,-13.874802c-1.400024,-13.2295 -6.161987,-20.165298 -12.218018,-24.4375c-6.512985,-4.594002 -19.942993,-8.967804 -33.093994,-8.875zm-67.563004,31.3125c-6.591995,0.032097 -13.811996,1.578896 -20.124695,5.75c-19.3955,12.814789 -18.2817,38.252792 -6.1875,54.843796c17.408203,23.880997 36.588196,28.076996 58.625198,43.061996c6.306,4.289001 15.844009,14.05101 21.656006,21.125c1.384995,-13.850998 13.841995,-21.633987 10.280991,-27.217987c-4.098999,-6.429001 -7.19899,2.421997 -13.875,10.811996c-11.108994,-10.738007 -29.162994,-20.281998 -40.843002,-28.311996c-18.736984,-12.881012 -34.963501,-34.534012 -28.875504,-55.563004c7.524521,-25.9888 37.082504,-14.022903 37.500519,-14.187302c7.827988,-3.084503 -3.654007,-10.383102 -18.157013,-10.3125zm85.094009,21.249802c-11.844009,0.056 -21.637009,5.159988 -28.344009,16.563004c-10.983002,18.672989 -2.161987,34.238998 9.719009,50.842987c8.544998,11.942001 16.513,16.353012 26.405991,30c9.679001,13.353012 18.300003,25.575012 25.813004,40.282013c10.013,-11.404022 11.085022,-26.27301 29.187012,-33.875c13.384979,-5.621002 23.399994,-7.425003 35.281982,-14.188004c8.429993,-4.798004 19.001007,-19.033997 19.437012,-30.281006c0.654999,-16.904999 1.117981,-24.397995 -15,-37.780991c-13.92099,-11.559998 -34.567017,-10.081009 -50.281006,-2.75c-21.682007,10.113998 -42.537003,41.503998 -10.843994,54.436996c10.528992,4.296997 22.661987,-0.552002 31.125,-8.061996c7.06601,-6.271011 11.128998,-15.973007 5.562988,-23.875c-3.300995,-4.686005 -11.306,-8.111008 -17.218994,-7.782013c-9.665985,0.539001 -15.106995,8.011002 -15.843994,17.5c-0.546021,7.029999 8.675018,9.841003 7.781006,5c-2.120026,-11.485001 3.570984,-13.773987 8.875,-13.061996c11.798981,1.584 8.02298,7.06601 2.781982,13.061996c-7.322998,8.378006 -18.056,10.637009 -25.281982,1.938004c-9.091003,-10.944992 2.281006,-21.951996 12.218994,-27.780991c16.527985,-9.694 35.535004,-9.990005 47.218994,7.217987c10.175995,14.988007 0.554993,36.009003 -15.531006,43.344009c-25.627991,11.686996 -39.029999,15.94899 -48.062988,35.563004c-5.251984,-9.989014 -11.173004,-17.012009 -18.062012,-26.125c-7.890991,-10.437012 -21.888992,-20.021011 -29.999985,-34.157013c-10.114014,-17.623001 -12.390015,-33.909988 1.655991,-43.624985c5.472,-3.785004 16.324997,-4.549011 24.75,-2.500015c5.242981,1.276016 15.934998,11.257996 18.311981,8.063004c3.52002,-4.729996 -12.643982,-14.817001 -19.155975,-16.405991c-4.365997,-1.06601 -8.552002,-1.581009 -12.5,-1.563004zm14.280975,20.875c-2.35498,-0.060013 -6.477982,2.796997 -10.499985,8.688004c-2.526001,3.699997 -9.483002,8.626999 -12.125,17.280991c-3.052002,9.998001 5.080002,12.526001 7.782013,2.5c2.314987,-8.591995 10.258987,-12.479004 13.217987,-17.155991c4.693008,-7.417007 4.294998,-11.244003 1.624985,-11.313004z" id="path2451" stroke-width="2" stroke="#ffffff" fill-rule="evenodd" fill="#3f007f"/>
 </g>
</svg>